<mxfile host="app.diagrams.net" modified="2022-08-16T18:15:25.462Z" agent="5.0 (Windows NT 10.0; WOW64) AppleWebKit/537.36 (KHTML, like Gecko) Chrome/104.0.0.0 Safari/537.36" etag="c0PezHe2kbaxxf_XRidy" version="20.2.4" type="github">
  <diagram id="Id603tN7NgWHlVoeqDad" name="第 1 页">
    <mxGraphModel dx="782" dy="380" grid="1" gridSize="10" guides="1" tooltips="1" connect="1" arrows="1" fold="1" page="1" pageScale="1" pageWidth="827" pageHeight="1169" math="0" shadow="0">
      <root>
        <mxCell id="0" />
        <mxCell id="1" parent="0" />
        <mxCell id="imOrFulsmnRfFESjlnKb-1" value="&lt;font face=&quot;Times New Roman&quot;&gt;PCF-&amp;gt;CPS正向模拟&lt;/font&gt;" style="rounded=0;whiteSpace=wrap;html=1;" vertex="1" parent="1">
          <mxGeometry x="140" y="140" width="140" height="30" as="geometry" />
        </mxCell>
        <mxCell id="imOrFulsmnRfFESjlnKb-2" value="&lt;font face=&quot;Times New Roman&quot;&gt;CPS-&amp;gt;SSA正向模拟&lt;/font&gt;" style="rounded=0;whiteSpace=wrap;html=1;" vertex="1" parent="1">
          <mxGeometry x="140" y="190" width="140" height="30" as="geometry" />
        </mxCell>
        <mxCell id="imOrFulsmnRfFESjlnKb-3" value="&lt;font face=&quot;Times New Roman&quot;&gt;PCF-&amp;gt;SSA正向模拟&lt;/font&gt;" style="rounded=0;whiteSpace=wrap;html=1;" vertex="1" parent="1">
          <mxGeometry x="310" y="160" width="140" height="30" as="geometry" />
        </mxCell>
        <mxCell id="imOrFulsmnRfFESjlnKb-6" value="" style="endArrow=classic;html=1;rounded=0;fontFamily=Times New Roman;exitX=1;exitY=0.5;exitDx=0;exitDy=0;entryX=0;entryY=0.5;entryDx=0;entryDy=0;" edge="1" parent="1" source="imOrFulsmnRfFESjlnKb-1" target="imOrFulsmnRfFESjlnKb-3">
          <mxGeometry width="50" height="50" relative="1" as="geometry">
            <mxPoint x="380" y="220" as="sourcePoint" />
            <mxPoint x="330" y="160" as="targetPoint" />
          </mxGeometry>
        </mxCell>
        <mxCell id="imOrFulsmnRfFESjlnKb-7" value="" style="endArrow=classic;html=1;rounded=0;fontFamily=Times New Roman;exitX=1;exitY=0.5;exitDx=0;exitDy=0;entryX=0;entryY=0.75;entryDx=0;entryDy=0;" edge="1" parent="1" source="imOrFulsmnRfFESjlnKb-2" target="imOrFulsmnRfFESjlnKb-3">
          <mxGeometry width="50" height="50" relative="1" as="geometry">
            <mxPoint x="290" y="165" as="sourcePoint" />
            <mxPoint x="330" y="180" as="targetPoint" />
          </mxGeometry>
        </mxCell>
        <mxCell id="imOrFulsmnRfFESjlnKb-8" value="&lt;font face=&quot;Times New Roman&quot;&gt;PCF-&amp;gt;SSA反向模拟&lt;/font&gt;" style="rounded=0;whiteSpace=wrap;html=1;" vertex="1" parent="1">
          <mxGeometry x="480" y="190" width="140" height="30" as="geometry" />
        </mxCell>
        <mxCell id="imOrFulsmnRfFESjlnKb-9" value="" style="endArrow=classic;html=1;rounded=0;fontFamily=Times New Roman;exitX=1;exitY=0.5;exitDx=0;exitDy=0;entryX=0;entryY=0.5;entryDx=0;entryDy=0;" edge="1" parent="1" source="imOrFulsmnRfFESjlnKb-3" target="imOrFulsmnRfFESjlnKb-8">
          <mxGeometry width="50" height="50" relative="1" as="geometry">
            <mxPoint x="290" y="165" as="sourcePoint" />
            <mxPoint x="320" y="185" as="targetPoint" />
          </mxGeometry>
        </mxCell>
        <mxCell id="imOrFulsmnRfFESjlnKb-10" value="&lt;font face=&quot;Times New Roman&quot;&gt;SSA是确定性的&lt;/font&gt;" style="rounded=0;whiteSpace=wrap;html=1;" vertex="1" parent="1">
          <mxGeometry x="310" y="210" width="140" height="30" as="geometry" />
        </mxCell>
        <mxCell id="imOrFulsmnRfFESjlnKb-11" value="" style="endArrow=classic;html=1;rounded=0;fontFamily=Times New Roman;exitX=1;exitY=0.5;exitDx=0;exitDy=0;entryX=0;entryY=0.5;entryDx=0;entryDy=0;" edge="1" parent="1" source="imOrFulsmnRfFESjlnKb-10" target="imOrFulsmnRfFESjlnKb-8">
          <mxGeometry width="50" height="50" relative="1" as="geometry">
            <mxPoint x="290" y="215" as="sourcePoint" />
            <mxPoint x="320" y="192.5" as="targetPoint" />
          </mxGeometry>
        </mxCell>
      </root>
    </mxGraphModel>
  </diagram>
</mxfile>
